#N canvas 716 238 450 300 10;
#X msg 48 29 devices;
#X floatatom 47 90 5 0 0 0 - - -, f 5;
#X msg 108 29 open 1;
#X obj 47 116 route 49;
#X obj 44 149 bng 15 250 50 0 empty empty empty 17 7 0 10 -262144 -1
-1;
#X obj 47 202 readsf~ 2;
#X obj 15 244 dac~;
#X msg 41 174 open 1.wav \, 1;
#X obj 48 60 comport;
#X connect 0 0 8 0;
#X connect 1 0 3 0;
#X connect 2 0 8 0;
#X connect 3 0 4 0;
#X connect 4 0 7 0;
#X connect 5 0 6 0;
#X connect 5 1 6 1;
#X connect 7 0 5 0;
#X connect 8 0 1 0;
